<svg t="1694006699651" class="icon" viewBox="0 0 1024 1024" version="1.1" xmlns="http://www.w3.org/2000/svg" p-id="10261" width="300" height="300"><path d="M84.2 849.2c1.4-8.3 2.3-16.7 4.2-24.9 5.3-22.5 17.7-40.8 34.8-56.3 73.3-66.2 146.3-132.7 219.5-199 33.2-30.2 66.5-60.3 99.7-90.5 2.6-2.3 5.1-4.7 8.5-8-6.6-6.8-12.8-13.5-19.2-19.9-13.7-13.5-22.7-29.6-26.3-48.5-3.2-16.8-0.2-33.1 3.8-49.5 14.2-58.7 27.6-117.7 42.1-176.3 8-32.3 28.8-53.7 61.3-62.1 60.9-15.7 121.9-31 183-46.1 25-6.2 48.7-1.4 68.3 14.9 18.3 15.2 34.6 32.9 52.1 49.8-3.5 3.8-5.5 6-7.6 8.1-47.9 49.4-95.8 98.8-143.8 148.2-12.2 12.5-16.8 26.9-10.8 43.7 9.8 27.5 43.2 35.3 63.6 14.6 27.5-27.8 54.6-56.1 81.9-84.2 23.3-24 46.5-48 70.2-72.4 9.4 9.3 18.5 18.4 27.6 27.5 4.9 5 9.7 10.1 14.6 15 25.2 25.2 33.1 55.2 24.9 89.8-14.4 60.5-28.5 121-43.1 181.4-8.4 34.7-29.7 57.4-64.7 66.2-59.3 15-118.6 30.1-178 44.8-30.8 7.6-57.6-0.1-80.4-22.1-4.6-4.5-9-9.3-14-14.5-2.4 2.6-4.5 4.7-6.4 6.9C456 696 361.9 806.2 268.1 916.6c-20.3 23.9-45.1 38.5-76.5 39.6-49.9 1.6-94.2-34.5-104-83.7-1.4-6.8-2.3-13.7-3.4-20.5v-2.8z m682-716.9c-6.4-5.5-12.3-10.2-17.7-15.3-13.1-12.4-28.5-17.3-46-13-60.1 15-120.1 30.3-180.1 45.5-20.1 5.1-32.4 18.1-37.1 37.9-14.8 61.7-29.3 123.4-43.8 185.1-4.5 19.1-0.1 36 13.8 50.2 10.3 10.5 20.5 21.1 30.7 31.7 12.5 12.9 12.2 22.5-1.2 34.7-17.5 16-35.1 31.8-52.6 47.8-95.7 86.8-191.3 173.6-287 260.4-21.2 19.2-28.3 42.9-22 70.4 8.1 34.9 43.6 57.5 78.5 50.5 18.4-3.7 31.1-15.5 42.8-29.3 98.2-115.5 196.7-230.8 295.1-346.1 10.3-12.1 19.9-12.4 30.9-1.2 8.4 8.5 16.5 17.3 25.1 25.7 12.9 12.7 28.3 17.3 46 12.9 59.6-14.9 119.1-30 178.7-44.9 20.6-5.1 33.5-17.8 38.4-38.4 14.8-61.9 29.6-123.8 44.1-185.8 1.4-5.9 1.5-12.4 1.1-18.5-1.8-22.7-19.4-34.7-35.2-51.6-1.9 3.1-2.9 5.9-4.8 7.8-40.6 41.9-80.9 83.7-121.6 125.2-22.8 23.3-56.3 28.7-84.6 14.4-46.2-23.4-56.2-85.6-19.5-123.9 39.9-41.6 80.1-82.8 120.2-124.1 2-2 3.8-3.9 7.8-8.1z" p-id="10262" fill="#d81e06"></path><path d="M909.9 906.3c13.3 23.2-3.3 52.3-29.9 52.3H574.8c-26.5 0-43.1-29.1-29.9-52.3 50.9-89.1 101.8-178.1 152.6-267.2 13.3-23.2 46.5-23.2 59.7 0 51 89.1 101.8 178.1 152.7 267.2zM880 936.6c9.8 0 16-10.7 11.1-19.3-50.9-89.1-101.8-178.1-152.6-267.2-4.9-8.6-17.2-8.6-22.1 0-50.9 89.1-101.8 178.1-152.6 267.2-4.9 8.6 1.2 19.3 11.1 19.3H880z m-152.6-61.5c10.8 0 19.6 8.8 19.6 19.8 0 10.9-8.7 19.8-19.6 19.8s-19.6-8.8-19.6-19.8c0.1-10.9 8.8-19.8 19.6-19.8zM747 736.7c-2.4 35.7-4.9 71.4-7.3 107.1-1.1 16.4-23.4 16.4-24.5 0-2.4-35.7-4.9-71.4-7.3-107.1 0-10.9 8.7-19.8 19.6-19.8 10.7 0 19.5 8.9 19.5 19.8z" p-id="10263" fill="#d81e06"></path></svg>