<svg t="1692254192289" class="icon" viewBox="0 0 1024 1024" version="1.1" xmlns="http://www.w3.org/2000/svg" p-id="2577" width="200" height="200"><path d="M512 74.656h-2.176c-88.384 0-157.664 0-212.192 6.624-55.712 6.784-100.32 20.864-136.96 52.16-9.76 8.352-18.88 17.44-27.232 27.232-31.296 36.64-45.376 81.248-52.16 136.96-6.624 54.528-6.624 123.808-6.624 212.192v4.384c0 88.384 0 157.664 6.624 212.192 6.784 55.712 20.864 100.32 52.16 136.96 8.352 9.76 17.44 18.88 27.232 27.232 36.64 31.296 81.248 45.376 136.96 52.16 54.528 6.624 123.808 6.624 212.192 6.624h4.384c88.384 0 157.664 0 212.192-6.624 55.712-6.784 100.32-20.864 136.96-52.16 9.76-8.352 18.88-17.44 27.232-27.232 31.296-36.64 45.376-81.248 52.16-136.96 6.624-54.528 6.624-123.808 6.624-212.192v-4.384c0-88.384 0-157.664-6.624-212.192-6.784-55.712-20.864-100.32-52.16-136.96a245.888 245.888 0 0 0-27.232-27.232c-36.64-31.296-81.248-45.376-136.96-52.16-54.528-6.624-123.808-6.624-212.192-6.624h-2.176zM202.24 182.112c23.2-19.808 53.632-31.296 103.104-37.28 50.208-6.112 115.616-6.144 206.656-6.144s156.416 0.064 206.656 6.144c49.472 6.016 79.904 17.472 103.136 37.28 7.232 6.176 13.952 12.896 20.128 20.128 19.808 23.2 31.296 53.632 37.28 103.104 6.112 50.208 6.144 115.616 6.144 206.656s-0.064 156.416-6.144 206.656c-6.016 49.472-17.472 79.904-37.28 103.136a181.12 181.12 0 0 1-20.128 20.128c-23.2 19.808-53.632 31.296-103.136 37.28-50.208 6.112-115.616 6.144-206.656 6.144s-156.416-0.064-206.656-6.144c-49.472-6.016-79.904-17.472-103.104-37.28a181.12 181.12 0 0 1-20.128-20.128c-19.808-23.2-31.296-53.632-37.28-103.136-6.112-50.208-6.144-115.616-6.144-206.656s0.064-156.416 6.144-206.656c6.016-49.472 17.472-79.904 37.28-103.104a181.12 181.12 0 0 1 20.128-20.128z m337.792 127.232c-85.856 0-148.64 77.76-148.64 164.736V480H384a32 32 0 0 0 0 64h7.392v5.92c0 86.976 62.784 164.736 148.64 164.736 56.192 0 103.264-34.144 128.256-81.344a32.032 32.032 0 0 0-56.576-29.952c-15.808 29.856-43.008 47.296-71.712 47.296-42.976 0-84.64-41.088-84.64-100.736V544h96a32 32 0 0 0 0-64h-96v-5.92c0-59.648 41.664-100.736 84.64-100.736 28.672 0 55.872 17.44 71.712 47.296a32 32 0 0 0 56.576-29.952c-24.992-47.232-72.064-81.344-128.256-81.344z" p-id="2578"></path></svg>